<svg xmlns="http://www.w3.org/2000/svg" width="189.632" height="37.334" viewBox="0 0 189.632 37.334"><path d="M145.138,36.915l.388-1.082a9.729,9.729,0,0,0,2.378.338c.975,0,1.176-.128,1.275-.617.115-.536-.043-.652-1.347-.861-1.806-.291-1.963-.931-1.748-1.979.3-1.35.974-1.664,3.081-1.664a11.106,11.106,0,0,1,2.392.291l-.272,1.129a11.144,11.144,0,0,0-2.236-.256c-.946,0-1.117.094-1.232.594-.129.559,0,.64,1.261.827,1.934.291,2.077.9,1.863,1.839-.316,1.385-.788,1.862-3.21,1.862A8.981,8.981,0,0,1,145.138,36.915Zm-80.962,0,.387-1.082a9.734,9.734,0,0,0,2.378.338c.975,0,1.176-.128,1.276-.617.114-.536-.043-.652-1.347-.861-1.806-.291-1.963-.931-1.748-1.979.3-1.35.974-1.664,3.081-1.664a11.108,11.108,0,0,1,2.392.291l-.272,1.129a11.153,11.153,0,0,0-2.236-.256c-.946,0-1.117.094-1.231.594-.129.559,0,.64,1.261.827,1.934.291,2.078.9,1.863,1.839-.316,1.385-.789,1.862-3.21,1.862A8.976,8.976,0,0,1,64.176,36.915Zm-38.812,0,.388-1.082a9.727,9.727,0,0,0,2.378.338c.975,0,1.176-.128,1.275-.617.114-.536-.043-.652-1.347-.861-1.806-.291-1.963-.931-1.748-1.979.3-1.35.975-1.664,3.081-1.664a11.106,11.106,0,0,1,2.392.291l-.272,1.129a11.144,11.144,0,0,0-2.235-.256c-.946,0-1.117.094-1.232.594-.129.559,0,.64,1.261.827,1.934.291,2.077.9,1.863,1.839-.316,1.385-.788,1.862-3.21,1.862A8.981,8.981,0,0,1,25.363,36.915Zm103.759.3.616-3.527-2.064,2.77h-1.691l-.846-2.887-.917,3.643H122.5l1.619-6.052h1.848L127.1,35.1l2.837-3.933h1.849l-.945,6.052Zm-25.991,0,1.318-6.052h5.173l-.258,1.152h-3.425l-.257,1.233h3.167l-.258,1.152h-3.167l-.287,1.362h3.425l-.243,1.152Zm-17.865,0L86.312,32.4H84.033l.273-1.234h6.276L90.324,32.4H88.06l-1.047,4.818Zm-38.7,0,.373-1.757-1.706-4.3h1.72l1.146,3.1,2.25-3.1h1.863L48.66,35.623l-.343,1.595Zm132.589-1.357c-5.5-.539-8.257-.787-13.784-1.241a.062.062,0,0,1,0-.012c-1.49-.122-2.236-.182-3.728-.3q4.462-15.683,8.925-31.366a2.173,2.173,0,0,1,2.036-1.535c6.819.268,10.224.419,17.022.75-.679,2.383-1.018,3.575-1.7,5.959a1.036,1.036,0,0,1-.987.747c-3.007-.175-4.512-.259-7.523-.419-.491,1.724-.86,3-1.35,4.724,2.267.133,3.4.2,5.666.346-.674,2.367-1.011,3.55-1.685,5.917a1.064,1.064,0,0,1-1.031.769c-1.941-.14-2.912-.208-4.855-.341-.8,2.825-1.082,3.823-1.886,6.647,3.293.256,4.938.391,8.223.673-.9,3.146-1.345,4.72-2.24,7.867a1.13,1.13,0,0,1-1.027.817Q179.2,35.865,179.157,35.861ZM9.264,3.058a1.356,1.356,0,0,1,1.146-.94c8.336-.392,12.5-.565,20.812-.867-.7,2.451-1.048,3.676-1.746,6.125a1.209,1.209,0,0,1-1.027.826c-4.146.183-6.222.283-10.375.493l-1.16,4.071c2.765-.154,4.146-.228,6.907-.369-.648,2.276-1.117,3.962-1.766,6.237A1.263,1.263,0,0,1,21,19.489c-2.437.144-3.658.219-6.1.375-1.421,4.986-3.154,11.04-3.752,13.128a1.227,1.227,0,0,1-.972.879L0,35.588ZM26.616,23.546,32.977,1.232a.069.069,0,0,1,.059-.047c3.276-.116,4.914-.17,8.186-.271a.614.614,0,0,1,.64.836l-5.133,18c1.294-.063,1.94-.094,3.233-.154L45.325.79C48.614.7,50.259.651,53.544.57a.614.614,0,0,1,.641.832L46.85,27.134c-2.084.093-3.128.142-5.215.246h0c-4.585.227-6.881.354-11.479.631-.1.006-.2.009-.3.009C27.345,28.021,25.9,26.071,26.616,23.546Zm116.39,3.826c2.617-9.2,4.977-17.5,7.594-26.7,7.479.2,11.213.324,18.669.6l-1.657,5.824a1.013,1.013,0,0,1-.958.718c-3.027-.135-4.543-.2-7.575-.319-.479,1.683-.883,3.037-1.362,4.72,2.317.1,3.474.155,5.788.266-.659,2.315-.988,3.473-1.646,5.788a1.049,1.049,0,0,1-1,.743c-2-.11-3-.162-4.995-.264-1.207,4.242-1.389,4.95-2.6,9.191C149.167,27.7,147.115,27.581,143.006,27.372ZM132.619,26.9a.659.659,0,0,1-.628-.886c1.02-3.586,1.213-3.793,2.233-7.378-1.408-.046-2.113-.069-3.523-.11-1.115,3.917-1.356,4.29-2.47,8.207-3.23-.115-4.847-.166-8.084-.255a.647.647,0,0,1-.633-.869L126.75.182c7.349.1,11.018.175,18.346.353a2.35,2.35,0,0,1,2.276,3.177c-2.782,9.778-3.916,13.767-6.7,23.545C137.456,27.1,135.845,27.03,132.619,26.9Zm.126-15.557c1.412.036,2.117.054,3.528.094.646-2.272,1.03-4.092,1.676-6.364-1.413-.034-2.119-.05-3.532-.081C133.773,7.259,133.39,9.076,132.745,11.344Zm-76-10A1.276,1.276,0,0,1,57.871.468C64.792.313,68.249.251,75.153.16L73.56,5.75a1.135,1.135,0,0,1-1.012.773c-3.314.055-4.972.086-8.291.158l-1.1,3.851c2.446-.058,3.669-.085,6.112-.132-.668,2.347-1,3.52-1.672,5.866a1.171,1.171,0,0,1-1.037.8c-2.12.049-3.18.077-5.3.136-.419,1.466-.371,1.3-.789,2.764,3.646-.108,5.467-.155,9.105-.234l-1.683,5.905a1.175,1.175,0,0,1-1.04.8c-6.956.177-10.443.295-17.431.589ZM77.664.128c3.274-.039,4.91-.055,8.181-.08a.621.621,0,0,1,.641.834L81.172,19.533c3.358-.039,5.035-.053,8.385-.068-.669,2.35-1,3.525-1.673,5.876a1.143,1.143,0,0,1-1.036.781c-6.648.039-9.979.085-16.659.234Zm36.778,26.211c-5.169-.112-7.758-.152-12.948-.2h0c-1.444-.013-2.167-.018-3.612-.025a2.263,2.263,0,0,1-2.3-3.033l1.558-5.47c3.613.005,5.418.016,9.024.049l-1.095,3.845c1.642.017,2.463.027,4.1.049.746-2.622.862-3.032,1.609-5.654-3.966-.048-5.952-.065-9.927-.081a2.29,2.29,0,0,1-2.331-3.071l2.761-9.7A4.461,4.461,0,0,1,105.36,0c6.3.018,9.448.039,15.734.11a2.328,2.328,0,0,1,2.329,3.13c-.542,1.906-.813,2.86-1.356,4.766-3.6-.058-5.4-.082-9-.118.366-1.286.549-1.929.915-3.215-1.643-.016-2.465-.022-4.109-.033L108.3,10.167c3.784.029,5.674.05,9.45.1a2.668,2.668,0,0,1,2.655,3.586c-1.267,4.45-1.643,5.774-2.909,10.224a3.273,3.273,0,0,1-3,2.258Z" transform="translate(0 0)"/></svg>