<svg xmlns="http://www.w3.org/2000/svg" width="59.734" height="42" viewBox="0 0 59.734 42"><path d="M73.418,70.572a7.506,7.506,0,0,0-5.281-5.315C63.479,64,44.8,64,44.8,64s-18.679,0-23.337,1.256a7.506,7.506,0,0,0-5.281,5.315c-1.248,4.689-1.248,14.471-1.248,14.471s0,9.782,1.248,14.471a7.394,7.394,0,0,0,5.281,5.23C26.121,106,44.8,106,44.8,106s18.679,0,23.337-1.256a7.394,7.394,0,0,0,5.281-5.23c1.248-4.689,1.248-14.471,1.248-14.471S74.666,75.26,73.418,70.572ZM38.691,93.924V76.161L54.3,85.043,38.691,93.924Z" transform="translate(-14.933 -64)" fill="#ffe61c"/></svg>