<svg xmlns="http://www.w3.org/2000/svg" width="119.307" height="38.304" viewBox="0 0 119.307 38.304"><path d="M660.413,285.14a5.5,5.5,0,1,1-3.891,1.611,5.485,5.485,0,0,1,3.891-1.611Zm19.424-.847c-1.36.006-2.729.021-4.084,0a2.5,2.5,0,0,1-2.348-.912l-1.375-2.044a2.418,2.418,0,0,1-.418-1.079,1.569,1.569,0,0,1,.1-.769,1.443,1.443,0,0,1,.54-.656,1.986,1.986,0,0,1,.919-.309l.028,0h0l1.2-.083c-5.021-2.117-11.766-2.615-18.512-3.112-1.812-.133-3.624-.267-5.543-.447-5.146-.481-10.816-2.645-16.339-4.873a85.68,85.68,0,0,1,7.1,5.643,4.972,4.972,0,0,1,1.654,2.183,7.251,7.251,0,0,1,.2,2.67l.129,11.745,6.893.05a10.568,10.568,0,1,1,20.9-.178c.415-.038.822-.067,1.226-.1,2.419-.175,4.708-.34,6.023-2.027a9.652,9.652,0,0,0,1.7-5.181c.007-.175.009-.349,0-.521Zm-2.745-4.443-3.783.261a.75.75,0,0,0-.109.02.953.953,0,0,0,.15.32l1.375,2.044c.129.192.593.2,1.051.207l.09,0,3.749,0a3.461,3.461,0,0,0-.994-1.691,13,13,0,0,0-1.53-1.16ZM567.608,273.8a5,5,0,0,1,3.414,1.7h0a5.955,5.955,0,0,1,1.554,3.608c0,.051.005.1.007.155a7.162,7.162,0,0,1,2.789,1.574l4.72,4.413a10.571,10.571,0,0,1,19.58,6.684l14.808.107q-.321-.243-.628-.519a13.885,13.885,0,0,1-3.7-6.164,29.976,29.976,0,0,1-1.092-9.556c0-.588,0-1.185-.014-1.8l-30.663-1.283h-.006l-8.828-.37h0a1.837,1.837,0,0,0-1.377.571,2.863,2.863,0,0,0-.562.882Zm3.963,5.2a4.974,4.974,0,0,0-1.283-2.829h0a4,4,0,0,0-2.8-1.379c-.057,0-.116,0-.178,0l-.015.073-.478,3.73.2.005A25.782,25.782,0,0,1,571.571,279Zm8.041,7.16-4.917-4.6c-1.932-1.807-4.984-1.892-7.7-1.968l-.463-.013a4.6,4.6,0,0,1-2.078,1.611c-.1.052-.2.1-.315.163-.639.335-.394,1.615-.184,2.711.01.056.021.108.076.419.152.839,7.093,3.965,10.844,5.654l1.079.487a5.847,5.847,0,0,0,2.674.5c-.007-.161-.012-.324-.012-.487a10.524,10.524,0,0,1,1-4.484Zm31.024-12.091c.009.583.011,1.16.013,1.728a28.725,28.725,0,0,0,1.016,9.083,12.289,12.289,0,0,0,3.255,5.458,6.418,6.418,0,0,0,3.982,1.736l22.589.163-.129-11.754v-.04a6.21,6.21,0,0,0-.115-2.105,3.624,3.624,0,0,0-1.192-1.485q-.969-.842-1.911-1.633l-27.508-1.152Zm8.9,19.6q-.363.015-.719,0l-19.46-.14a10.571,10.571,0,0,1-20.535-.8,7.42,7.42,0,0,1-3.522-.642l-1.078-.487c-4.018-1.81-11.453-5.159-11.755-6.828-.008-.044-.034-.177-.077-.4-.312-1.631-.676-3.534,1.014-4.42.1-.053.215-.111.328-.169.656-.335,1.311-.67,1.479-1.122l.517-4.032.007-.047a5.267,5.267,0,0,1,1.289-2.76,3.4,3.4,0,0,1,2.571-1.057h.016l8.835.369a17.433,17.433,0,0,0,4.6-.576,27.646,27.646,0,0,0,5.261-1.826c.4-.2.329-.164,1.057-.526,3.626-1.8,7.272-3.618,10.116-4.246a63.566,63.566,0,0,1,9.908-.983,74.281,74.281,0,0,1,8.065.092l.122.008a.573.573,0,0,1,.064.007c.549.048,1.045.106,1.472.175,4.156.675,8.974,2.629,13.964,4.653,5.9,2.393,12.044,4.886,17.416,5.388,1.721.161,3.616.3,5.512.44,9.164.676,18.33,1.351,23.676,6.084a5.529,5.529,0,0,1,1.691,3.575v0a9.342,9.342,0,0,1,.055,1.479,11.353,11.353,0,0,1-2.04,6.1c-1.753,2.247-4.383,2.437-7.164,2.638-.57.041-1.147.083-1.7.141a10.573,10.573,0,0,1-20.162.136l-30.821-.223Zm-30.35-8.527a5.5,5.5,0,1,1-3.891,1.611,5.485,5.485,0,0,1,3.891-1.611Zm2.762,2.741a3.906,3.906,0,1,0,1.144,2.762A3.894,3.894,0,0,0,591.945,287.881Zm3.581-3.582a8.971,8.971,0,1,0,2.628,6.344,8.942,8.942,0,0,0-2.628-6.344Zm-9.769-12.866,10.214.428a13.642,13.642,0,0,1,7.516-6.9,34.677,34.677,0,0,0-3.669.546c-2.633.582-6.2,2.356-9.747,4.121l-1.063.526A25.416,25.416,0,0,1,585.757,271.433Zm11.948.5,38.373,1.607a55.261,55.261,0,0,0-6.072-4.222,39.2,39.2,0,0,0-11.2-4.5c-.383-.061-.825-.113-1.314-.156l-.037,0c-3.408-.245-8.836-.125-13.354,1.769a12.311,12.311,0,0,0-6.4,5.5Zm65.47,15.947a3.906,3.906,0,1,0,1.144,2.762A3.894,3.894,0,0,0,663.175,287.881Zm3.581-3.582a8.971,8.971,0,1,0,2.628,6.344,8.941,8.941,0,0,0-2.628-6.344Z" transform="translate(-562.123 -262.907)" opacity="0.304"/></svg>