<svg xmlns="http://www.w3.org/2000/svg" width="52.017" height="52.02" viewBox="0 0 52.017 52.02"><g transform="translate(-2.423 -2.434)" opacity="0.297"><path d="M52.5,3.252,46.738,9.01H27.884a.8.8,0,0,0-.595.255L3.255,33.283a.841.841,0,0,0,0,1.206L22.466,53.7a.853.853,0,0,0,.594.255.824.824,0,0,0,.594-.255L47.672,29.682a.865.865,0,0,0,.255-.594V10.216l5.758-5.758A.847.847,0,0,0,52.5,3.252ZM46.246,28.731,23.077,51.9,5.055,33.877,28.224,10.709H45.04l-5.215,5.215a4.264,4.264,0,1,0,1.9,3.55,4.356,4.356,0,0,0-.7-2.344l5.215-5.215Zm-6.217-9.257a2.552,2.552,0,1,1-.747-1.8A2.476,2.476,0,0,1,40.029,19.474Z" stroke="#000" stroke-width="1"/></g></svg>