<svg xmlns="http://www.w3.org/2000/svg" width="48" height="47.999" viewBox="0 0 48 47.999"><g transform="translate(-7.816 -7.99)" opacity="0.302"><path d="M31.726,8a1.132,1.132,0,0,0-.285.089L8.634,17.228a1.143,1.143,0,0,0,.647,2.192,1.156,1.156,0,0,0,.209-.085l22.379-8.965,21.667,8.679V35.781L31.869,44.46,10.2,35.781V22.853a1.14,1.14,0,1,0-2.281-.033.31.31,0,0,0,0,.033V45.71a1.143,1.143,0,0,0,.713,1.054l22.807,9.143a1.142,1.142,0,0,0,.855,0L55.1,46.763a1.143,1.143,0,0,0,.713-1.054V18.281a1.144,1.144,0,0,0-.713-1.054L32.3,8.085A1.142,1.142,0,0,0,31.726,8Zm.142,10.286a14.062,14.062,0,0,0-8.339,2.554,8.305,8.305,0,0,0-3.635,6.589A8.274,8.274,0,0,0,23.53,34a14.071,14.071,0,0,0,8.339,2.571A14.073,14.073,0,0,0,40.208,34a8.274,8.274,0,0,0,3.635-6.571,8.305,8.305,0,0,0-3.635-6.589A14.064,14.064,0,0,0,31.869,18.281Zm0,2.286a11.875,11.875,0,0,1,6.985,2.107,5.974,5.974,0,0,1,2.708,4.75,4.955,4.955,0,0,1-.321,1.732,13.477,13.477,0,0,0-9.373-3.446A13.477,13.477,0,0,0,22.5,29.156a4.956,4.956,0,0,1-.321-1.732,5.973,5.973,0,0,1,2.709-4.75A11.873,11.873,0,0,1,31.869,20.567Zm0,7.429a11.188,11.188,0,0,1,8.143,3.143,8.111,8.111,0,0,1-1.158,1.018,11.882,11.882,0,0,1-6.985,2.125,11.88,11.88,0,0,1-6.985-2.125,8.111,8.111,0,0,1-1.158-1.018A11.186,11.186,0,0,1,31.869,28ZM10.2,38.246l20.527,8.232v6.678L10.2,44.942v-6.7Zm43.334,0v6.7L33.009,53.156V46.478l20.527-8.232Z" transform="translate(0 0)"/></g></svg>