<svg xmlns="http://www.w3.org/2000/svg" width="12.469" height="23.625" viewBox="0 0 12.469 23.625"><path d="M-2.352-6.3v-.844a7,7,0,0,1,.563-3.008A8.056,8.056,0,0,1,.3-12.641a14.133,14.133,0,0,0,2.68-2.7,4.112,4.112,0,0,0,.555-2.187,3.048,3.048,0,0,0-1.023-2.461A4.436,4.436,0,0,0-.43-20.859a10.01,10.01,0,0,0-2.406.289,13.048,13.048,0,0,0-2.687,1.055l-.922-2.109A13.129,13.129,0,0,1-.273-23.172,6.759,6.759,0,0,1,4.367-21.7a5.244,5.244,0,0,1,1.656,4.141,6.049,6.049,0,0,1-.3,2.008,5.9,5.9,0,0,1-.9,1.641,21.572,21.572,0,0,1-2.562,2.492A9.639,9.639,0,0,0,.172-9.187,4.785,4.785,0,0,0-.336-6.812V-6.3Zm-.766,4.641q0-2.125,1.875-2.125a1.784,1.784,0,0,1,1.4.547A2.283,2.283,0,0,1,.648-1.656,2.24,2.24,0,0,1,.148-.1,1.777,1.777,0,0,1-1.242.453,1.9,1.9,0,0,1-2.586-.039,2.12,2.12,0,0,1-3.117-1.656Z" transform="translate(6.445 23.172)" fill="#fff"/></svg>