<svg xmlns="http://www.w3.org/2000/svg" width="27.686" height="24" viewBox="0 0 27.686 24"><g transform="translate(-56.011 -34)"><path d="M5.626,11a.615.615,0,1,0,0,1.231H9.434l3.24,15.327a.643.643,0,0,0,.644.673H28.7A.615.615,0,1,0,28.7,27H13.819L13.3,24.538H29.934a.636.636,0,0,0,.6-.481l2.154-9.231a.644.644,0,0,0-.6-.75h-21l-.548-2.6A.635.635,0,0,0,9.934,11Zm5.721,4.308H31.319l-1.875,8H13.04ZM16.4,29.461a2.769,2.769,0,1,0,2.769,2.769A2.779,2.779,0,0,0,16.4,29.461Zm9.231,0A2.769,2.769,0,1,0,28.4,32.231,2.779,2.779,0,0,0,25.626,29.461ZM16.4,30.692a1.538,1.538,0,1,1-1.538,1.538A1.529,1.529,0,0,1,16.4,30.692Zm9.231,0a1.538,1.538,0,1,1-1.538,1.538A1.529,1.529,0,0,1,25.626,30.692Z" transform="translate(51 23)" fill="#fff"/></g></svg>