<svg xmlns="http://www.w3.org/2000/svg" width="48" height="47.989" viewBox="0 0 48 47.989"><path d="M23.93,43.516a12.3,12.3,0,1,0,12.3,12.3A12.284,12.284,0,0,0,23.93,43.516Zm0,20.3a8,8,0,1,1,8-8,8.014,8.014,0,0,1-8,8ZM39.607,43.012a2.87,2.87,0,1,1-2.87-2.87A2.863,2.863,0,0,1,39.607,43.012Zm8.149,2.913c-.182-3.844-1.06-7.25-3.876-10.055s-6.211-3.684-10.055-3.876c-3.962-.225-15.838-.225-19.8,0-3.834.182-7.239,1.06-10.055,3.866S.286,42.07.094,45.914c-.225,3.962-.225,15.838,0,19.8.182,3.844,1.06,7.25,3.876,10.055s6.211,3.684,10.055,3.876c3.962.225,15.838.225,19.8,0,3.844-.182,7.25-1.06,10.055-3.876s3.684-6.211,3.876-10.055c.225-3.962.225-15.827,0-19.789Zm-5.119,24.04a8.1,8.1,0,0,1-4.562,4.562c-3.159,1.253-10.655.964-14.146.964s-11,.278-14.146-.964a8.1,8.1,0,0,1-4.562-4.562C3.97,66.806,4.259,59.311,4.259,55.82s-.278-11,.964-14.146a8.1,8.1,0,0,1,4.562-4.562c3.159-1.253,10.655-.964,14.146-.964s11-.278,14.146.964a8.1,8.1,0,0,1,4.562,4.562c1.253,3.159.964,10.655.964,14.146S43.891,66.817,42.638,69.965Z" transform="translate(0.075 -31.825)" fill="#ffe61c"/></svg>