<svg xmlns="http://www.w3.org/2000/svg" width="61.219" height="67.754" viewBox="0 0 61.219 67.754"><path d="M21.792,6.705h-7.54V10.9h2.511a.838.838,0,0,1,.838.838v4.574a8.382,8.382,0,0,1,5.867,8v29.34a1.671,1.671,0,0,1-1.678,1.674H5.031a1.674,1.674,0,0,1-1.678-1.674V24.3a8.387,8.387,0,0,1,5.867-8V11.734a.838.838,0,0,1,.838-.838h2.518V6.705h-4.2a6.71,6.71,0,0,0-6.7,6.71.838.838,0,0,1-1.676,0A8.386,8.386,0,0,1,8.378,5.029H21.792V2.514a.838.838,0,0,1,.656-.818L29.991.02,30.173,0h7.543a.838.838,0,0,1,.838.838V10.9a.838.838,0,0,1-.838.838H30.173l-.182-.02-7.543-1.676a.838.838,0,0,1-.656-.818Zm0,21.792V24.3a6.705,6.705,0,0,0-5.214-6.538.837.837,0,0,1-.653-.817V12.572H10.9V16.95a.837.837,0,0,1-.653.817A6.71,6.71,0,0,0,5.029,24.3V53.642H21.79s0-2.794,0-8.381H15.925a.838.838,0,0,1-.838-.838V29.335a.838.838,0,0,1,.838-.838Zm0,1.676H16.763v13.41h5.029ZM23.468,3.187V8.547l6.8,1.51h6.613V1.676H30.266Z" transform="matrix(0.875, 0.485, -0.485, 0.875, 27.158, 0.34)" stroke="#000" stroke-width="0.5" fill-rule="evenodd" opacity="0.296"/></svg>