<svg xmlns="http://www.w3.org/2000/svg" width="102.143" height="57.025" viewBox="0 0 102.143 57.025"><g transform="translate(440.493 -293.953) rotate(104)" opacity="0.302"><path d="M424.95,294.648l-8.677-19.926v-7.241a1.1,1.1,0,0,0-1.1-1.1h-5.683a1.1,1.1,0,0,0-1.1,1.1v7.223l-9.313,19.751a1.091,1.091,0,0,0-.105.469v.443h-7.058V267.482a1.1,1.1,0,1,0-2.2,0v61.7a1.094,1.094,0,0,0,.2.634l9.014,12.748c.012.018.028.029.04.045v6.707a1.1,1.1,0,0,0,.358.812c.165.151,4.147,3.7,12.676,3.7s12.51-3.547,12.676-3.7a1.1,1.1,0,0,0,.357-.812V295.086A1.085,1.085,0,0,0,424.95,294.648Zm-33.034,34.189V297.565h7.058v41.256Zm20.092,22.8c-6.247,0-9.762-2.087-10.837-2.849V295.171l9.313-19.751a1.091,1.091,0,0,0,.105-.469V268.58h3.486v6.371a1.091,1.091,0,0,0,.092.439l8.31,19.084c-1.38.888-4.779,2.6-10.47,2.6a24.063,24.063,0,0,1-5.707-.649,1.1,1.1,0,0,0-.522,2.135,26.3,26.3,0,0,0,6.229.711,22.465,22.465,0,0,0,10.836-2.463v51.976C421.765,349.549,418.251,351.633,412.008,351.633Z" transform="translate(0 -5.827)"/><path d="M421.943,299.887c.033,0,.067,0,.1,0a1.1,1.1,0,0,0,1-1.192L422.07,287.9a1.1,1.1,0,1,0-2.189.2l.968,10.794A1.1,1.1,0,0,0,421.943,299.887Z" transform="translate(-8.069 -11.315)"/><path d="M417.517,261.937h3.67a1.471,1.471,0,0,0,1.079-.473,1.439,1.439,0,0,0,.376-1.089,2.76,2.76,0,0,1,1.115-2.311,1.456,1.456,0,0,0,.029-2.149l-2.523-2.369a1.467,1.467,0,0,0-1.981-.021c-3.363,3.051-3.366,6.018-3.21,7.15A1.464,1.464,0,0,0,417.517,261.937Z" transform="translate(-7.037 -2.287)"/><path d="M428.79,251.852a.92.92,0,1,0,1.259-1.342l-3.33-3.126a.92.92,0,1,0-1.259,1.342Z" transform="translate(-9.485 -0.677)"/><path d="M426.517,254.554a.92.92,0,0,0,1.259-1.342l-3.33-3.126a.92.92,0,1,0-1.259,1.342Z" transform="translate(-8.876 -1.4)"/><path d="M431.322,249.322a.92.92,0,1,0,1.258-1.342l-3.33-3.127a.92.92,0,0,0-1.258,1.342Z" transform="translate(-10.162)"/></g></svg>