<svg xmlns="http://www.w3.org/2000/svg" width="21.409" height="24" viewBox="0 0 21.409 24"><g transform="translate(-1896.295 88)"><g transform="translate(1901 -88)" fill="none" stroke="#fff" stroke-width="1.5"><circle cx="6" cy="6" r="6" stroke="none"/><circle cx="6" cy="6" r="5.25" fill="none"/></g><g transform="translate(1893 -92)" fill="none"><path d="M3.3,23.023A12.158,12.158,0,0,1,14,17a12.157,12.157,0,0,1,10.7,6.023,14,14,0,0,1-21.409,0Z" stroke="none"/><path d="M 14.00039672851563 26.49990081787109 C 17.32909965515137 26.49990081787109 20.48926162719727 25.18250846862793 22.82534408569336 22.85273170471191 C 22.0009708404541 21.69829750061035 20.90670776367188 20.71398162841797 19.61486625671387 19.97213935852051 C 17.9378662109375 19.00912094116211 15.99641704559326 18.50009918212891 14.00039672851563 18.50009918212891 C 12.00406646728516 18.50009918212891 10.06237697601318 19.00913047790527 8.385236740112305 19.9721508026123 C 7.09332275390625 20.71396827697754 5.999023914337158 21.6982479095459 5.174616813659668 22.85268402099609 C 7.510848045349121 25.1824893951416 10.67129611968994 26.49990081787109 14.00039672851563 26.49990081787109 M 14.00039672851563 27.99990081787109 C 9.705916404724121 27.99990081787109 5.863446712493896 26.06689071655273 3.295346736907959 23.02346992492676 C 5.276966571807861 19.44894981384277 9.326616287231445 17.00009918212891 14.00039672851563 17.00009918212891 C 18.67354583740234 17.00009918212891 22.72302627563477 19.44898986816406 24.70458602905273 23.02350997924805 C 22.13658714294434 26.06693077087402 18.29437637329102 27.99990081787109 14.00039672851563 27.99990081787109 Z" stroke="none" fill="#fff"/></g></g></svg>